<?xml version="1.0" encoding="utf-8"?>
<!-- Generator: Adobe Illustrator 25.2.1, SVG Export Plug-In . SVG Version: 6.00 Build 0)  -->
<svg version="1.1" id="Layer_1" xmlns="http://www.w3.org/2000/svg" xmlns:xlink="http://www.w3.org/1999/xlink" x="0px" y="0px"
	 viewBox="0 0 243.98 174" style="enable-background:new 0 0 243.98 174;" xml:space="preserve">
<style type="text/css">
	.st0{fill:#998675;}
	.st1{fill:#B58761;}
	.st2{fill:url(#SVGID_1_);}
</style>
<path class="st0" d="M233.84,38.21l-68.22,12.98c-19.54-23.98-54.81-27.59-78.79-8.05c-10.19,8.3-17.15,19.95-19.63,32.87H1.16
	C4.15,46.2,17.86,19.55,38.4,0h168.34C218.07,10.8,227.33,23.75,233.84,38.21z"/>
<path class="st1" d="M233.9,138.21v0.15c-5.98,13.33-14.3,25.39-24.44,35.64H35.67C16.06,154.13,3.24,127.55,0.92,98.01h66.44
	c6.32,30.27,35.98,49.69,66.25,43.39c11.34-2.38,21.66-8.18,29.55-16.66L233.9,138.21z"/>
<linearGradient id="SVGID_1_" gradientUnits="userSpaceOnUse" x1="255.9776" y1="921.0519" x2="96.3439" y2="921.0519" gradientTransform="matrix(1 0 0 1 -12 -833.3666)">
	<stop  offset="0" style="stop-color:#B2876F"/>
	<stop  offset="1" style="stop-color:#896954"/>
</linearGradient>
<path class="st2" d="M243.82,89.93l-5.76,30.19c-0.28,0.65-0.97,1.03-1.66,0.89l-81.74-15c-10.12,18.1-32.99,24.57-51.09,14.45
	S79.01,87.47,89.13,69.37s32.99-24.57,51.09-14.45c6.82,3.81,12.28,9.67,15.62,16.72l80.51-14.78c0.72-0.16,1.44,0.22,1.72,0.89
	l5.76,30.19C244.03,88.59,244.03,89.28,243.82,89.93z"/>
</svg>
