<svg id="Layer_1" data-name="Layer 1" xmlns="http://www.w3.org/2000/svg" xmlns:xlink="http://www.w3.org/1999/xlink" viewBox="0 0 244.99 174"><defs><style>.cls-1{fill:#998675;}.cls-2{fill:#b58761;}.cls-3{fill:url(#linear-gradient);}</style><linearGradient id="linear-gradient" x1="256.99" y1="86.56" x2="95.86" y2="86.56" gradientUnits="userSpaceOnUse"><stop offset="0" stop-color="#b2876f"/><stop offset="1" stop-color="#896954"/></linearGradient></defs><title>passid</title><path class="cls-1" d="M245,0V38.19l-68.29,13A56,56,0,0,0,78.29,76H12V0Z" transform="translate(-12)"/><path class="cls-2" d="M245,138.2V174H12V98H78.46a56,56,0,0,0,95.8,26.73Z" transform="translate(-12)"/><path class="cls-3" d="M256.83,88.81,246.66,119a1.52,1.52,0,0,1-1.66.9l-78.81-15a37.54,37.54,0,1,1,1.17-34.36l77.58-14.79a1.51,1.51,0,0,1,1.72.9l10.17,30.18A3.25,3.25,0,0,1,256.83,88.81Z" transform="translate(-12)"/></svg>