<svg id="Layer_1" data-name="Layer 1" xmlns="http://www.w3.org/2000/svg" viewBox="0 0 512.12 512.13"><defs><style>.cls-1{fill:#6d6d6d;}</style></defs><path class="cls-1" d="M504.82,45.38l-35.38-35c-9.57-9.57-25.38-9.57-35.37,0L257.6,186.88,77.81,7.09c-9.58-9.57-25.39-9.57-35.38,0L7.06,42.47c-9.58,9.57-9.58,25.39,0,35.38L186.44,257.23l-176,176.88c-9.57,9.57-9.57,25.38,0,35.37l35.37,35.38c9.58,9.57,25.39,9.57,35.38,0L257.6,328.39,434.07,504.86c9.57,9.57,25.39,9.57,35.37,0l35.38-35.38c9.57-9.57,9.57-25.38,0-35.37L327.94,257.64,504.4,81.18A25.51,25.51,0,0,0,504.82,45.38Z" transform="translate(0.12 0.09)"/></svg>